<?xml version="1.0" encoding="utf-8"?>
<!-- Generator: Adobe Illustrator 19.2.1, SVG Export Plug-In . SVG Version: 6.00 Build 0)  -->
<svg version="1.1" id="layer" xmlns="http://www.w3.org/2000/svg" xmlns:xlink="http://www.w3.org/1999/xlink" x="0px" y="0px"
	 viewBox="0 0 652 652" style="enable-background:new 0 0 652 652;" xml:space="preserve">
<style type="text/css">
	.st0{fill:#0B79BF;}
	.st1{fill:#FEFEFE;}
	.st2{fill:#4C4C4E;}
</style>
<path class="st0" d="M593,380.2c-30,15.4-66.9,3.9-82.5-26c-15.5-29.7-3.9-66.4,25.8-81.9c0.1,0,0.2-0.1,0.3-0.1
	c30-15.5,66.9-3.9,82.5,26C634.6,328,622.9,364.7,593,380.2z"/>
<path class="st1" d="M534.7,329.5l5.3,0.6c-0.4,2.9-1.8,5.5-3.9,7.5c-1.9,1.6-4.3,2.4-7,2.4c-3.7,0-6.6-1.4-8.6-4.1c-2-2.7-3-6-3-10
	c0-4.1,1.1-7.4,3.3-10c2.1-2.7,5.1-4,8.8-4c5.9,0,9.4,3.1,10.6,9.3l-5.3,0.7c-0.4-3.3-2.1-5-4.9-5c-2.1,0-3.6,0.9-4.5,2.7
	c-0.9,1.8-1.4,4-1.4,6.6c0,2.7,0.5,4.8,1.5,6.3c1,1.5,2.3,2.2,4.1,2.2C532.1,334.7,533.8,332.9,534.7,329.5 M555.6,335
	c4.1,0,6.1-3,6.1-9.1c0-2.7-0.5-4.9-1.5-6.5c-0.9-1.6-2.7-2.5-4.5-2.4c-2.1,0-3.7,0.9-4.7,2.5c-1,1.6-1.5,3.8-1.5,6.5
	c0,3,0.5,5.1,1.6,6.7C552.2,334.2,553.7,335,555.6,335 M555.4,340c-4,0-7.1-1.4-9.2-4.3c-2.1-2.9-3.2-6.3-3.1-9.9
	c0-3.9,1.2-7.3,3.5-9.9c2.3-2.6,5.7-4.1,9.2-4c3.6,0,6.6,1.3,9,3.9c2.3,2.6,3.5,5.9,3.5,10c0,4.3-1.2,7.7-3.6,10.3
	C562.2,338.7,559.1,340,555.4,340 M612.2,339.4h-6.4v-16.8c0-3.5-1.5-5.2-4.6-5.2c-1.8,0-3.2,0.6-4.3,2c-1.1,1.3-1.6,3.3-1.6,5.9
	v14.2h-6.5v-16.8c0-3.6-1.5-5.3-4.3-5.3c-1.8,0-3.3,0.7-4.5,2.1c-1.2,1.4-1.8,3.3-1.8,5.8v14.2h-6.3v-27h5.9v5.7
	c1.9-4.2,4.9-6.3,9-6.3c4,0,6.6,2.1,7.8,6.3c2.2-4.2,5.2-6.3,9-6.3c2.7,0,4.7,0.8,6.3,2.4c1.6,1.6,2.4,3.6,2.4,6L612.2,339.4
	L612.2,339.4z"/>
<path class="st2" d="M475.5,276.1l0,26.7h12.7v16.3h-12.6v28.2c0,3,0.3,5,0.7,6c0.8,1.5,2.1,2.2,3.9,2.2c1.7,0,4.1-0.6,7.1-1.7
	l5.5,17.6c-5.7,1.5-14.8,3.1-19.7,3.1c-5.7,0-9.9-0.9-12.6-2.6c-2.7-1.7-4.7-4.3-6-7.8c-1.3-3.5-1.9-9.1-1.9-17v-28.1H444v-16.3h8.5
	v-26.7C452.5,276.2,475.5,276.1,475.5,276.1z M57.3,276.2v26.7H70v16.3H57.4v28.2c0,3,0.3,5,0.8,6c0.7,1.5,2.1,2.2,3.9,2.2
	c1.7,0,4.1-0.6,7.1-1.7l5.5,17.6c-6.4,1.7-13,2.7-19.7,3.1c-5.7,0-9.9-0.9-12.6-2.6c-2.7-1.7-4.7-4.3-6-7.8c-1.3-3.5-1.9-9.1-1.9-17
	v-28.1h-8.5v-16.3h8.5v-26.7C34.4,276.2,57.3,276.2,57.3,276.2z M119.3,339.8c-3.2,1.3-6.4,2.5-9.9,3.5c-4.7,1.5-7.6,2.9-8.8,4.3
	c-1.3,1.5-1.9,3.1-1.9,5c0,2.1,0.6,3.9,1.9,5.2c1.3,1.3,3.1,2,5.6,2c2.6,0,4.9-0.7,7.1-2.2c2.2-1.5,3.7-3.2,4.7-5.3
	c0.9-2.1,1.4-4.8,1.4-8.2V339.8z M123.1,373.1c-0.9-1.8-1.5-3.2-1.7-4.1c-0.4-1.5-0.6-3-0.8-4.5c-2.5,3-5.6,5.5-9,7.3
	c-4,1.9-8.7,2.9-14.1,2.9c-7.1,0-12.5-1.9-16.3-5.8c-3.7-3.8-5.7-9-5.6-14.3c0-5.3,1.3-9.7,4-13.1c2.7-3.4,7.6-6,14.8-7.7
	c8.6-2,14.3-3.4,16.9-4.1c3.9-1,6-1.2,7.7-3.8c1.8-2.8-0.2-5.4-1.4-6.5c-1.3-1.2-3.3-2-6.2-2c-3.7,0-6.2,0.4-8,1.9
	c-3.2,2.6-2.1,6.4-5.3,6.4l-20.6,0c0.9-4.5,1-9.3,3.6-13.3c1.6-2.5,3.8-4.8,6.7-6.7c2.7-1.6,5.6-2.7,8.7-3.2
	c9.4-1.6,19.1-1.5,28.5,0.2c4.2,0.9,7.6,2.8,10.4,5.6c2,2,3.5,4.8,4.6,8.4c1.2,3.6,1.7,7.1,1.7,10.4v45.9
	C141.7,373.1,123.1,373.1,123.1,373.1z M323.9,339.8c-3.1,1.3-6.4,2.5-9.9,3.5c-4.6,1.5-7.6,2.9-8.8,4.3c-1.3,1.5-1.9,3.1-1.9,5
	c0,2.1,0.6,3.9,1.9,5.2c1.3,1.3,3.1,2,5.6,2c2.5,0,4.9-0.7,7.1-2.2c2.1-1.5,3.7-3.2,4.6-5.3c0.9-2.1,1.4-4.8,1.4-8.2
	C323.9,344.1,323.9,339.8,323.9,339.8z M327.7,373.1c-0.9-1.8-1.5-3.2-1.7-4.1c-0.4-1.5-0.6-3-0.8-4.5c-2.5,3-5.5,5.5-9,7.3
	c-4,1.9-8.8,2.9-14.1,2.9c-7.1,0-12.6-1.9-16.3-5.8c-3.7-3.8-5.7-9-5.6-14.3c0-5.3,1.3-9.7,4-13.1c2.7-3.4,7.6-6,14.8-7.7
	c8.6-2,14.3-3.4,16.9-4.1c3.8-1,6-1.2,7.7-3.8c1.8-2.8-0.2-5.4-1.5-6.5c-1.3-1.2-3.3-2-6.2-2c-3.8,0-6.2,0.4-8,1.9
	c-3.2,2.6-2.1,6.4-5.3,6.4l-20.6,0c0.9-4.5,1-9.3,3.6-13.3c1.6-2.5,3.8-4.8,6.7-6.7c2.7-1.6,5.6-2.7,8.7-3.2
	c9.4-1.6,19.1-1.5,28.5,0.2c4.2,0.9,7.6,2.8,10.4,5.6c1.9,2,3.5,4.8,4.6,8.4c1.1,3.6,1.7,7.1,1.7,10.4v45.9
	C346.3,373.1,327.7,373.1,327.7,373.1z M146,276.2h20.1v55.5l26-28.8h23.9l-24,25.9l23.8,44.3h-23.6l-14.7-29.3l-11.9,13v16.3H146
	L146,276.2z M254.4,330.9c-0.4-5.1-1.6-7.9-3.6-10.2c-1.9-2.2-4.7-3.5-7.6-3.3c-3.6,0-6.6,1.7-8.8,5.1c-1.4,2.1-2.3,4.3-2.6,8.5
	C231.9,330.9,254.4,330.9,254.4,330.9z M276.9,353.1c-1.8,7.2-6.5,13.3-12.9,17c-4.9,3-11.9,4.6-21,4.6c-7.9,0-14.2-1.3-18.7-3.9
	c-4.9-3-8.8-7.3-11.3-12.4c-3.1-6.3-4.6-13.2-4.5-20.2c0-10.9,3-19.8,9-26.6c6-6.8,14.2-10.2,24.8-10.2c8.6,0,15.3,1.5,20.3,4.5
	c5.1,3.1,9,7.7,11.4,13.2c2.6,5.8,3.9,13.3,3.9,22.5v3h-46c0.4,4.3,1.4,7.6,3,9.7c2.2,3,4.7,5.3,8.2,5.2c8,0,11.1-3.1,12.5-7.4
	L276.9,353.1z M350.7,276.1h20.8v96.8h-20.8V276.1z M398.9,338.2c0,6.3,1.1,14.7,3.2,17.7c2.8,4.5,8.8,5.9,13.3,3.1
	c1.2-0.8,2.2-1.8,3-3c2.1-3,3.2-11.5,3.2-18c0-6-1.1-12.2-3.2-15.2c-2.1-3-4.8-4.5-7.9-4.5c-3.4,0-6.5,1.7-8.3,4.5
	C399.9,325.8,398.9,332,398.9,338.2 M375.9,338.3c0-10.7,3-19.5,9.2-26.5c6.4-7,15.5-10.8,25-10.4c12,0,21,4.1,27.2,12.2
	c5.1,7,7.7,15.6,7.4,24.2c0,10.8-3,19.6-9.1,26.5c-6.1,6.9-14.6,10.3-25.3,10.3c-8.6,0.4-17.1-2.7-23.4-8.6
	C379.5,359,375.9,349.8,375.9,338.3"/>
</svg>
